<svg width="186" height="55" viewBox="0 0 186 55" fill="none" xmlns="http://www.w3.org/2000/svg">
<g clip-path="url(#clip0_17_44)">
<path d="M70.6496 22.4534L58.3217 9.26733V25.5315L36.8683 9.57825V27.1638L31.7754 23.7437C31.7754 23.6131 31.7754 23.4826 31.7754 23.3489C31.7919 21.7509 31.4907 20.1656 30.8893 18.6851C30.3317 17.3095 29.5111 16.0558 28.4734 14.9945C27.4397 13.9478 26.2014 13.1254 24.8357 12.5786C23.3724 11.9954 21.8092 11.7039 20.2341 11.7205H0.0803223V34.8902H20.2434C21.8188 34.9057 23.3819 34.6131 24.845 34.0289C26.2068 33.4875 27.4444 32.6752 28.4828 31.6411C29.9725 30.1198 31.0102 28.2145 31.48 26.1378L42.2751 37.4304V21.1786L64.0115 37.4304V19.708L70.6496 24.3718V34.8902H76.6783V11.7112H70.6496V22.4534ZM24.2481 27.3815C23.2428 28.3329 21.8954 28.8262 20.2061 28.8614H6.12149V17.7927H20.2061C21.9037 17.8238 23.251 18.3254 24.2481 19.2976C25.2492 20.2708 25.756 21.6202 25.756 23.3395C25.756 25.0589 25.2492 26.427 24.2481 27.3815Z" fill="white"/>
<path d="M108.591 13.6078C107.398 12.9143 106.098 12.4216 104.745 12.1496C103.376 11.8645 101.983 11.7176 100.585 11.7112H80.8384V34.8902H86.8671V29.1724H100.585C101.983 29.1685 103.377 29.0195 104.745 28.7278C106.099 28.461 107.399 27.9691 108.591 27.2727C109.73 26.6033 110.698 25.6797 111.42 24.5739C112.198 23.3381 112.588 21.8979 112.54 20.4387C112.54 18.7804 112.167 17.3958 111.42 16.2848C110.692 15.1898 109.725 14.2745 108.591 13.6078ZM106.066 21.6109C105.745 21.9609 105.357 22.2432 104.925 22.441C104.432 22.6761 103.909 22.8424 103.371 22.9354C102.795 23.0403 102.211 23.0924 101.626 23.0908H86.8671V17.7399H101.623C102.208 17.7399 102.792 17.7919 103.368 17.8954C103.906 17.9897 104.428 18.156 104.922 18.3897C105.359 18.5923 105.747 18.8847 106.063 19.2479C106.352 19.5769 106.511 20.0007 106.508 20.4387C106.515 20.8713 106.357 21.2905 106.066 21.6109Z" fill="white"/>
<path d="M143.33 13.7663C142.18 13.0473 140.919 12.5221 139.599 12.2117C138.296 11.8916 136.961 11.7267 135.619 11.7205H115.45V34.8902H121.488V29.1723H136.039L138.837 34.8902H145.594L142.111 27.8198C143.602 27.1666 144.89 26.1263 145.842 24.807C146.72 23.5221 147.175 21.9947 147.142 20.4386C147.178 19.0472 146.808 17.6753 146.079 16.49C145.374 15.3909 144.435 14.4609 143.33 13.7663ZM140.473 21.7414C140.012 22.1017 139.494 22.3823 138.94 22.5715C138.35 22.781 137.741 22.9289 137.121 23.013C136.606 23.0912 136.087 23.1348 135.566 23.1436H121.488V17.7927H135.619C136.125 17.803 136.63 17.8456 137.13 17.9202C137.747 18.0078 138.356 18.1472 138.949 18.3368C139.505 18.5101 140.024 18.7829 140.482 19.1421C140.684 19.2932 140.848 19.4894 140.961 19.715C141.074 19.9406 141.133 20.1894 141.133 20.4417C141.133 20.6941 141.074 20.9429 140.961 21.1685C140.848 21.3941 140.684 21.5903 140.482 21.7414H140.473Z" fill="white"/>
<path d="M185.037 18.6228C184.48 17.2543 183.659 16.0088 182.621 14.9571C181.582 13.9243 180.344 13.1122 178.983 12.5692C177.521 11.9864 175.959 11.6948 174.385 11.7111H160.614C159.035 11.6978 157.469 11.9892 156 12.5692C154.63 13.1069 153.385 13.9196 152.341 14.9571C151.299 16.007 150.476 17.2529 149.919 18.6228C149.32 20.1041 149.02 21.689 149.036 23.2866C149.021 24.871 149.321 26.4426 149.919 27.91C150.478 29.2863 151.3 30.5401 152.341 31.6006C153.376 32.6583 154.623 33.4857 156 34.0289C157.473 34.612 159.045 34.9044 160.63 34.8901H174.4C175.975 34.9054 177.537 34.6128 178.999 34.0289C180.365 33.4836 181.604 32.661 182.637 31.613C183.673 30.5506 184.493 29.2972 185.052 27.9224C185.65 26.455 185.95 24.8834 185.935 23.2991C185.948 21.6962 185.642 20.1069 185.037 18.6228ZM178.383 27.3286C177.38 28.3069 176.034 28.7961 174.344 28.7961H160.614C158.912 28.7961 157.56 28.3038 156.557 27.3192C155.552 26.3305 155.049 24.9904 155.049 23.2773C155.049 21.5641 155.552 20.1868 156.557 19.198C157.561 18.2093 158.913 17.7181 160.614 17.7181H174.344C176.038 17.7181 177.385 18.2114 178.386 19.198C179.387 20.1847 179.89 21.5444 179.894 23.2773C179.891 24.9998 179.387 26.3398 178.386 27.3286H178.383Z" fill="white"/>
<path d="M76.4639 0.657959H70.5688V6.75819H76.4639V0.657959Z" fill="white"/>
<path d="M59.6151 54.478V49.3167C59.6074 49.2064 59.5756 49.0991 59.5218 49.0024C59.4681 48.9056 59.3938 48.8219 59.3042 48.7571C59.1179 48.616 58.907 48.5105 58.6823 48.4462C58.3345 48.3486 57.9739 48.3046 57.6128 48.3156C57.2537 48.3039 56.895 48.3479 56.5494 48.4462C56.3335 48.5134 56.1313 48.6187 55.9525 48.7571C55.8628 48.8219 55.7885 48.9056 55.7348 49.0024C55.6811 49.0991 55.6492 49.2064 55.6415 49.3167V54.478H53.4651V49.3167C53.4574 49.2064 53.4256 49.0991 53.3719 49.0024C53.3182 48.9056 53.2438 48.8219 53.1542 48.7571C52.9761 48.6193 52.7751 48.514 52.5603 48.4462C52.2148 48.3479 51.8561 48.3039 51.497 48.3156C51.1349 48.3044 50.7732 48.3485 50.4243 48.4462C50.206 48.5121 50.0015 48.6174 49.8212 48.7571C49.7315 48.8219 49.6572 48.9056 49.6035 49.0024C49.5498 49.0991 49.5179 49.2064 49.5102 49.3167V54.478H47.3338V49.2981C47.3194 48.8003 47.4548 48.3096 47.7224 47.8896C47.9807 47.5008 48.3175 47.1703 48.7112 46.9196C49.1229 46.6613 49.5732 46.4703 50.045 46.3537C50.5162 46.2315 51.0009 46.1689 51.4877 46.1671C52.1219 46.1499 52.754 46.2479 53.3532 46.4563C53.7839 46.6106 54.187 46.8332 54.5471 47.1154C54.8974 46.8304 55.2938 46.6075 55.7193 46.4563C56.3245 46.246 56.963 46.148 57.6035 46.1671C58.0871 46.1704 58.5685 46.2331 59.0368 46.3537C59.5119 46.4691 59.9654 46.6602 60.38 46.9196C60.7721 47.1712 61.1077 47.5016 61.3656 47.8896C61.6343 48.3093 61.7708 48.8 61.7573 49.2981V54.478H59.6151Z" fill="white"/>
<path d="M76.3768 50.321C76.3826 50.8894 76.2769 51.4535 76.0659 51.9813C75.8645 52.4735 75.5699 52.9222 75.1984 53.3027C74.8274 53.6786 74.3829 53.9739 73.8926 54.1702C73.369 54.3808 72.809 54.4864 72.2447 54.4811H67.3042C66.7369 54.4858 66.174 54.3802 65.647 54.1702C65.1531 53.9755 64.7052 53.6801 64.3318 53.3027C63.9603 52.9222 63.6658 52.4735 63.4643 51.9813C63.0415 50.9095 63.0415 49.717 63.4643 48.6451C63.6636 48.1536 63.9584 47.7066 64.3318 47.33C64.7082 46.9594 65.1556 46.6686 65.647 46.4749C66.174 46.2649 66.7369 46.1593 67.3042 46.164H72.2416C72.8059 46.1587 73.3658 46.2643 73.8894 46.4749C74.3773 46.6702 74.8213 46.9609 75.1953 47.33C75.5687 47.7066 75.8636 48.1536 76.0628 48.6451C76.2761 49.1778 76.3828 49.7472 76.3768 50.321ZM74.2159 50.321C74.2309 50.0533 74.1906 49.7855 74.0975 49.534C74.0044 49.2826 73.8606 49.0531 73.6749 48.8597C73.481 48.6781 73.2525 48.5374 73.003 48.446C72.7536 48.3547 72.4883 48.3146 72.2229 48.328H67.3042C67.0384 48.3147 66.7727 48.3548 66.5227 48.4462C66.2727 48.5375 66.0437 48.6781 65.8491 48.8597C65.5019 49.2644 65.311 49.78 65.311 50.3132C65.311 50.8465 65.5019 51.3621 65.8491 51.7668C66.0442 51.9473 66.2734 52.0871 66.5233 52.1779C66.7732 52.2686 67.0387 52.3086 67.3042 52.2953H72.2229C72.488 52.3085 72.753 52.2685 73.0023 52.1778C73.2517 52.087 73.4804 51.9472 73.6749 51.7668C73.8618 51.5769 74.0074 51.3505 74.1026 51.1017C74.1979 50.8529 74.2407 50.5871 74.2284 50.321H74.2159Z" fill="white"/>
<path d="M88.9908 50.3397C88.997 50.9072 88.8913 51.4703 88.6799 51.9969C88.4807 52.4884 88.1858 52.9355 87.8124 53.3121C87.4393 53.6831 86.9951 53.9749 86.5066 54.1702C85.9829 54.3809 85.423 54.4865 84.8587 54.4812H77.6267V46.1672H84.8556C85.4199 46.1618 85.9798 46.2675 86.5034 46.4781C86.9936 46.6733 87.4381 46.9676 87.8093 47.3425C88.1815 47.7236 88.4761 48.1735 88.6768 48.667C88.8897 49.1987 88.9964 49.767 88.9908 50.3397ZM86.8144 50.3397C86.8299 50.0734 86.7899 49.8068 86.6967 49.5568C86.6036 49.3068 86.4594 49.0789 86.2734 48.8877C85.8783 48.5251 85.3574 48.331 84.8214 48.3467H79.7876V52.3141H84.8369C85.3709 52.3312 85.8909 52.1419 86.2889 51.7855C86.4754 51.5959 86.62 51.3692 86.7132 51.1201C86.8064 50.8711 86.8462 50.6052 86.8299 50.3397H86.8144Z" fill="white"/>
<path d="M99.2385 54.4781V53.9806C99.0139 54.0891 98.781 54.1795 98.5421 54.2511C98.3379 54.313 98.1303 54.3629 97.9202 54.4004C97.7722 54.4275 97.6227 54.4462 97.4725 54.4563H97.258H94.1892C93.6219 54.4604 93.0592 54.3549 92.532 54.1454C92.0403 53.9525 91.5937 53.6604 91.2199 53.2873C90.8465 52.9107 90.5517 52.4636 90.3524 51.9721C90.1384 51.4397 90.0327 50.87 90.0415 50.2962V46.1672H92.2024V50.3025C92.1835 50.5691 92.2221 50.8366 92.3155 51.087C92.409 51.3374 92.5551 51.5648 92.7441 51.7537C92.9331 51.9427 93.1605 52.0889 93.4109 52.1824C93.6613 52.2758 93.9288 52.3144 94.1954 52.2954H97.2362C97.5017 52.3087 97.7672 52.2687 98.0171 52.178C98.267 52.0872 98.4962 51.9475 98.6913 51.7669C98.8754 51.5757 99.0181 51.3487 99.1106 51.1C99.2032 50.8512 99.2435 50.5861 99.2292 50.3211V46.1672H101.406V54.4781H99.2385Z" fill="white"/>
<path d="M102.892 54.4781V46.1672H105.053V52.2954H113.758V54.4719L102.892 54.4781Z" fill="white"/>
<path d="M124.451 54.478V52.4446H117.406V54.478H115.229V49.8142C115.212 49.2129 115.388 48.622 115.733 48.129C116.069 47.6626 116.501 47.2744 117.001 46.991C117.525 46.6988 118.09 46.489 118.677 46.3692C119.246 46.243 119.827 46.1774 120.409 46.1733H121.435C122.021 46.1763 122.605 46.242 123.176 46.3692C123.761 46.4909 124.324 46.7006 124.846 46.991C125.337 47.2738 125.761 47.6587 126.09 48.1197C126.43 48.6175 126.604 49.2112 126.584 49.8142V54.478H124.451ZM124.451 49.8142C124.452 49.6765 124.422 49.5404 124.362 49.4165C124.302 49.2925 124.214 49.1839 124.106 49.0991C123.86 48.8972 123.578 48.7423 123.276 48.642C122.956 48.531 122.626 48.4528 122.29 48.4088C122.012 48.3696 121.732 48.3478 121.451 48.3435H120.425C119.865 48.3237 119.306 48.393 118.767 48.5488C118.441 48.6468 118.136 48.8084 117.872 49.0245C117.705 49.1611 117.574 49.3361 117.49 49.5344C117.45 49.6345 117.422 49.7388 117.406 49.8453V50.2744H124.451V49.8142Z" fill="white"/>
<path d="M139.468 49.2982C139.478 49.8522 139.315 50.3953 139.002 50.8528C138.659 51.3261 138.197 51.6995 137.662 51.9348L138.906 54.4688H136.484L135.479 52.426H130.262V54.4781H128.086V46.1672H135.318C135.798 46.17 136.276 46.2295 136.742 46.3445C137.216 46.4557 137.668 46.6437 138.082 46.901C138.48 47.15 138.818 47.4846 139.07 47.8804C139.339 48.3041 139.477 48.7969 139.468 49.2982ZM137.292 49.2982C137.293 49.2076 137.272 49.1181 137.231 49.0371C137.191 48.956 137.132 48.8857 137.059 48.8318C136.895 48.7027 136.708 48.6047 136.508 48.5427C136.296 48.4739 136.077 48.424 135.856 48.3934C135.677 48.3661 135.498 48.3506 135.318 48.3468H130.262V50.2651H135.315C135.501 50.2621 135.687 50.2465 135.871 50.2185C136.094 50.1878 136.312 50.1346 136.524 50.0599C136.724 49.9884 136.91 49.8832 137.074 49.749C137.146 49.6972 137.204 49.6295 137.244 49.5512C137.285 49.473 137.306 49.3863 137.308 49.2982H137.292Z" fill="white"/>
</g>
<defs>
<clipPath id="clip0_17_44">
<rect width="185.839" height="53.8201" fill="white" transform="translate(0.0803223 0.657959)"/>
</clipPath>
</defs>
</svg>
